<?xml version="1.0" standalone="no"?>
<!DOCTYPE svg PUBLIC "-//W3C//DTD SVG 20010904//EN"
 "http://www.w3.org/TR/2001/REC-SVG-20010904/DTD/svg10.dtd">
<svg version="1.0" xmlns="http://www.w3.org/2000/svg"
 width="512.000000pt" height="512.000000pt" viewBox="0 0 512.000000 512.000000"
 preserveAspectRatio="xMidYMid meet">

<g transform="translate(0.000000,512.000000) scale(0.100000,-0.100000)"
fill="#000000" stroke="none">
<path d="M345 5106 c-84 -21 -147 -57 -211 -121 -65 -65 -105 -136 -123 -223
-16 -76 -16 -4329 0 -4404 37 -172 175 -310 347 -347 75 -16 4328 -16 4404 0
170 36 311 178 347 347 16 76 16 4329 0 4404 -37 172 -176 311 -347 347 -81
17 -4349 14 -4417 -3z m2065 -1341 l0 -1055 -1055 0 -1055 0 0 998 c1 1121 -5
1039 76 1088 l39 24 998 0 997 0 0 -1055z m2330 1035 c26 -13 47 -34 60 -60
20 -39 20 -57 20 -1035 l0 -995 -1055 0 -1055 0 0 1055 0 1055 995 0 c978 0
996 0 1035 -20z m-2330 -3445 l0 -1055 -996 0 -996 0 -40 22 c-24 14 -48 38
-59 60 -18 36 -19 75 -19 1033 l0 995 1055 0 1055 0 0 -1055z m2410 60 c0
-978 0 -996 -20 -1035 -13 -26 -34 -47 -60 -60 -39 -20 -57 -20 -1035 -20
l-995 0 0 1055 0 1055 1055 0 1055 0 0 -995z"/>
<path d="M776 4391 c-45 -30 -66 -70 -66 -127 0 -67 14 -85 244 -314 l186
-185 -199 -200 c-109 -110 -206 -211 -215 -225 -22 -34 -21 -117 3 -154 10
-15 32 -37 47 -47 37 -24 120 -25 154 -3 14 9 115 106 225 215 l200 199 185
-186 c229 -230 247 -244 314 -244 89 0 146 57 146 146 0 67 -14 85 -244 314
l-186 185 199 200 c109 110 206 211 215 225 22 34 21 117 -3 154 -10 15 -32
37 -47 47 -37 24 -120 25 -154 3 -14 -9 -115 -106 -225 -215 l-200 -199 -185
186 c-229 230 -247 244 -314 244 -33 0 -61 -7 -80 -19z"/>
<path d="M3631 4529 c-263 -44 -508 -252 -596 -506 -100 -286 -30 -589 184
-804 208 -208 503 -280 780 -190 122 39 220 99 312 190 304 305 304 787 0
1092 -181 180 -428 260 -680 218z m231 -300 c178 -37 330 -189 367 -367 69
-332 -229 -630 -561 -561 -177 37 -330 190 -367 367 -69 332 229 630 561 561z"/>
<path d="M1221 2119 c-263 -44 -508 -252 -596 -506 -100 -286 -30 -589 184
-804 208 -208 503 -280 780 -190 122 39 220 99 312 190 304 305 304 787 0
1092 -181 180 -428 260 -680 218z m231 -300 c178 -37 330 -189 367 -367 69
-332 -229 -630 -561 -561 -177 37 -330 190 -367 367 -69 332 229 630 561 561z"/>
<path d="M3186 1981 c-45 -30 -66 -70 -66 -127 0 -67 14 -85 244 -314 l186
-185 -199 -200 c-109 -110 -206 -211 -215 -225 -22 -34 -21 -117 3 -154 10
-15 32 -37 47 -47 37 -24 120 -25 154 -3 14 9 115 106 225 215 l200 199 185
-186 c229 -230 247 -244 314 -244 89 0 146 57 146 146 0 67 -14 85 -244 314
l-186 185 199 200 c109 110 206 211 215 225 22 34 21 117 -3 154 -10 15 -32
37 -47 47 -37 24 -120 25 -154 3 -14 -9 -115 -106 -225 -215 l-200 -199 -185
186 c-229 230 -247 244 -314 244 -33 0 -61 -7 -80 -19z"/>
</g>
</svg>
